<svg id="visual" viewBox="0 0 900 600" width="900" height="600" xmlns="http://www.w3.org/2000/svg" xmlns:xlink="http://www.w3.org/1999/xlink" version="1.1"><path d="M0 55L82 55L82 43L164 43L164 31L245 31L245 55L327 55L327 43L409 43L409 37L491 37L491 37L573 37L573 55L655 55L655 37L736 37L736 49L818 49L818 49L900 49L900 43L900 0L900 0L818 0L818 0L736 0L736 0L655 0L655 0L573 0L573 0L491 0L491 0L409 0L409 0L327 0L327 0L245 0L245 0L164 0L164 0L82 0L82 0L0 0Z" fill="#a84474"></path><path d="M0 127L82 127L82 85L164 85L164 97L245 97L245 97L327 97L327 85L409 85L409 97L491 97L491 79L573 79L573 97L655 97L655 97L736 97L736 115L818 115L818 91L900 91L900 103L900 41L900 47L818 47L818 47L736 47L736 35L655 35L655 53L573 53L573 35L491 35L491 35L409 35L409 41L327 41L327 53L245 53L245 29L164 29L164 41L82 41L82 53L0 53Z" fill="#9d3d6f"></path><path d="M0 265L82 265L82 253L164 253L164 277L245 277L245 289L327 289L327 199L409 199L409 211L491 211L491 277L573 277L573 307L655 307L655 271L736 271L736 223L818 223L818 241L900 241L900 259L900 101L900 89L818 89L818 113L736 113L736 95L655 95L655 95L573 95L573 77L491 77L491 95L409 95L409 83L327 83L327 95L245 95L245 95L164 95L164 83L82 83L82 125L0 125Z" fill="#92376a"></path><path d="M0 337L82 337L82 313L164 313L164 355L245 355L245 367L327 367L327 271L409 271L409 289L491 289L491 343L573 343L573 367L655 367L655 355L736 355L736 295L818 295L818 289L900 289L900 337L900 257L900 239L818 239L818 221L736 221L736 269L655 269L655 305L573 305L573 275L491 275L491 209L409 209L409 197L327 197L327 287L245 287L245 275L164 275L164 251L82 251L82 263L0 263Z" fill="#873065"></path><path d="M0 487L82 487L82 439L164 439L164 475L245 475L245 493L327 493L327 457L409 457L409 427L491 427L491 445L573 445L573 499L655 499L655 481L736 481L736 457L818 457L818 481L900 481L900 445L900 335L900 287L818 287L818 293L736 293L736 353L655 353L655 365L573 365L573 341L491 341L491 287L409 287L409 269L327 269L327 365L245 365L245 353L164 353L164 311L82 311L82 335L0 335Z" fill="#7c2a60"></path><path d="M0 541L82 541L82 475L164 475L164 511L245 511L245 535L327 535L327 511L409 511L409 493L491 493L491 487L573 487L573 535L655 535L655 523L736 523L736 493L818 493L818 535L900 535L900 487L900 443L900 479L818 479L818 455L736 455L736 479L655 479L655 497L573 497L573 443L491 443L491 425L409 425L409 455L327 455L327 491L245 491L245 473L164 473L164 437L82 437L82 485L0 485Z" fill="#71235a"></path><path d="M0 601L82 601L82 601L164 601L164 601L245 601L245 601L327 601L327 601L409 601L409 601L491 601L491 601L573 601L573 601L655 601L655 601L736 601L736 601L818 601L818 601L900 601L900 601L900 485L900 533L818 533L818 491L736 491L736 521L655 521L655 533L573 533L573 485L491 485L491 491L409 491L409 509L327 509L327 533L245 533L245 509L164 509L164 473L82 473L82 539L0 539Z" fill="#661d55"></path></svg>