<svg id="visual" viewBox="0 0 900 600" width="900" height="600" xmlns="http://www.w3.org/2000/svg" xmlns:xlink="http://www.w3.org/1999/xlink" version="1.1"><rect x="0" y="0" width="900" height="600" fill="#661D55"></rect><g fill="#A84474"><circle r="14" cx="684" cy="515"></circle><circle r="1" cx="201" cy="117"></circle><circle r="10" cx="591" cy="379"></circle><circle r="3" cx="570" cy="199"></circle><circle r="6" cx="577" cy="480"></circle><circle r="11" cx="717" cy="515"></circle><circle r="9" cx="656" cy="171"></circle><circle r="10" cx="58" cy="521"></circle><circle r="3" cx="18" cy="530"></circle><circle r="7" cx="536" cy="12"></circle><circle r="12" cx="700" cy="445"></circle><circle r="5" cx="174" cy="422"></circle><circle r="6" cx="45" cy="166"></circle><circle r="4" cx="55" cy="227"></circle><circle r="5" cx="13" cy="288"></circle><circle r="8" cx="119" cy="515"></circle><circle r="1" cx="775" cy="41"></circle><circle r="3" cx="183" cy="192"></circle><circle r="11" cx="670" cy="548"></circle><circle r="0" cx="27" cy="386"></circle><circle r="9" cx="302" cy="394"></circle><circle r="11" cx="167" cy="361"></circle><circle r="5" cx="456" cy="374"></circle><circle r="6" cx="107" cy="334"></circle><circle r="7" cx="534" cy="594"></circle><circle r="4" cx="719" cy="421"></circle><circle r="2" cx="136" cy="168"></circle><circle r="12" cx="43" cy="357"></circle><circle r="0" cx="262" cy="518"></circle><circle r="7" cx="376" cy="474"></circle><circle r="8" cx="714" cy="9"></circle><circle r="12" cx="765" cy="288"></circle><circle r="3" cx="533" cy="140"></circle><circle r="9" cx="805" cy="351"></circle><circle r="6" cx="843" cy="215"></circle><circle r="5" cx="562" cy="142"></circle><circle r="6" cx="570" cy="588"></circle><circle r="6" cx="640" cy="6"></circle><circle r="0" cx="883" cy="129"></circle><circle r="8" cx="866" cy="532"></circle><circle r="5" cx="828" cy="323"></circle><circle r="0" cx="601" cy="85"></circle><circle r="6" cx="714" cy="171"></circle><circle r="7" cx="320" cy="90"></circle><circle r="9" cx="872" cy="208"></circle><circle r="5" cx="298" cy="259"></circle><circle r="12" cx="35" cy="137"></circle><circle r="4" cx="75" cy="194"></circle><circle r="2" cx="65" cy="24"></circle><circle r="11" cx="64" cy="108"></circle><circle r="10" cx="373" cy="81"></circle><circle r="7" cx="98" cy="402"></circle><circle r="5" cx="225" cy="359"></circle><circle r="12" cx="9" cy="82"></circle><circle r="7" cx="186" cy="448"></circle><circle r="10" cx="625" cy="518"></circle><circle r="5" cx="18" cy="582"></circle><circle r="1" cx="872" cy="337"></circle><circle r="0" cx="348" cy="509"></circle><circle r="0" cx="815" cy="401"></circle><circle r="5" cx="835" cy="138"></circle><circle r="3" cx="465" cy="116"></circle><circle r="2" cx="636" cy="103"></circle><circle r="6" cx="334" cy="176"></circle><circle r="0" cx="663" cy="418"></circle><circle r="1" cx="228" cy="441"></circle><circle r="5" cx="772" cy="560"></circle><circle r="7" cx="90" cy="133"></circle><circle r="12" cx="475" cy="426"></circle><circle r="4" cx="653" cy="274"></circle><circle r="12" cx="107" cy="554"></circle><circle r="4" cx="392" cy="375"></circle><circle r="12" cx="661" cy="322"></circle><circle r="7" cx="792" cy="465"></circle><circle r="0" cx="550" cy="483"></circle><circle r="12" cx="327" cy="7"></circle><circle r="6" cx="891" cy="386"></circle><circle r="6" cx="478" cy="151"></circle><circle r="6" cx="414" cy="167"></circle><circle r="3" cx="536" cy="100"></circle><circle r="4" cx="701" cy="232"></circle><circle r="10" cx="565" cy="407"></circle><circle r="3" cx="346" cy="316"></circle><circle r="10" cx="305" cy="467"></circle><circle r="3" cx="88" cy="75"></circle><circle r="1" cx="821" cy="17"></circle><circle r="11" cx="513" cy="532"></circle><circle r="1" cx="659" cy="202"></circle><circle r="9" cx="270" cy="337"></circle><circle r="3" cx="777" cy="383"></circle><circle r="9" cx="319" cy="339"></circle><circle r="11" cx="346" cy="407"></circle><circle r="1" cx="252" cy="306"></circle><circle r="4" cx="18" cy="258"></circle><circle r="12" cx="897" cy="39"></circle><circle r="4" cx="748" cy="349"></circle><circle r="8" cx="672" cy="253"></circle><circle r="8" cx="284" cy="140"></circle><circle r="3" cx="535" cy="285"></circle><circle r="1" cx="286" cy="359"></circle><circle r="2" cx="102" cy="279"></circle><circle r="5" cx="424" cy="442"></circle><circle r="3" cx="465" cy="507"></circle><circle r="7" cx="263" cy="207"></circle><circle r="8" cx="56" cy="400"></circle><circle r="6" cx="427" cy="7"></circle><circle r="5" cx="409" cy="418"></circle><circle r="4" cx="5" cy="316"></circle><circle r="6" cx="731" cy="235"></circle><circle r="12" cx="654" cy="522"></circle><circle r="11" cx="690" cy="95"></circle><circle r="3" cx="176" cy="249"></circle><circle r="1" cx="434" cy="142"></circle><circle r="1" cx="363" cy="591"></circle><circle r="3" cx="226" cy="199"></circle><circle r="2" cx="728" cy="385"></circle><circle r="2" cx="380" cy="558"></circle><circle r="11" cx="349" cy="546"></circle><circle r="4" cx="726" cy="544"></circle><circle r="12" cx="114" cy="218"></circle><circle r="5" cx="809" cy="140"></circle><circle r="4" cx="833" cy="66"></circle><circle r="1" cx="487" cy="373"></circle><circle r="9" cx="616" cy="290"></circle><circle r="4" cx="841" cy="268"></circle><circle r="0" cx="533" cy="70"></circle><circle r="10" cx="505" cy="439"></circle><circle r="0" cx="442" cy="306"></circle><circle r="6" cx="746" cy="15"></circle><circle r="3" cx="394" cy="26"></circle><circle r="7" cx="584" cy="517"></circle><circle r="11" cx="260" cy="176"></circle><circle r="11" cx="656" cy="131"></circle><circle r="8" cx="186" cy="577"></circle><circle r="7" cx="94" cy="463"></circle><circle r="12" cx="184" cy="8"></circle><circle r="2" cx="204" cy="244"></circle><circle r="2" cx="808" cy="84"></circle><circle r="6" cx="539" cy="238"></circle><circle r="8" cx="626" cy="251"></circle><circle r="2" cx="809" cy="508"></circle><circle r="11" cx="549" cy="340"></circle><circle r="7" cx="671" cy="56"></circle><circle r="11" cx="146" cy="593"></circle><circle r="9" cx="810" cy="585"></circle><circle r="1" cx="591" cy="179"></circle><circle r="0" cx="349" cy="144"></circle><circle r="4" cx="122" cy="471"></circle><circle r="12" cx="755" cy="169"></circle><circle r="1" cx="257" cy="41"></circle><circle r="10" cx="894" cy="262"></circle><circle r="7" cx="756" cy="424"></circle><circle r="10" cx="748" cy="595"></circle><circle r="7" cx="500" cy="499"></circle><circle r="10" cx="735" cy="55"></circle><circle r="3" cx="685" cy="196"></circle><circle r="4" cx="748" cy="90"></circle><circle r="5" cx="756" cy="215"></circle><circle r="12" cx="27" cy="24"></circle><circle r="7" cx="805" cy="257"></circle><circle r="4" cx="395" cy="241"></circle><circle r="11" cx="216" cy="60"></circle><circle r="9" cx="306" cy="571"></circle><circle r="8" cx="136" cy="253"></circle><circle r="12" cx="273" cy="16"></circle><circle r="3" cx="590" cy="554"></circle><circle r="0" cx="159" cy="559"></circle><circle r="12" cx="618" cy="354"></circle><circle r="2" cx="355" cy="262"></circle><circle r="8" cx="488" cy="308"></circle><circle r="0" cx="634" cy="485"></circle><circle r="8" cx="578" cy="307"></circle><circle r="2" cx="233" cy="140"></circle><circle r="1" cx="847" cy="188"></circle><circle r="6" cx="498" cy="179"></circle><circle r="9" cx="140" cy="51"></circle><circle r="12" cx="137" cy="396"></circle><circle r="3" cx="638" cy="381"></circle><circle r="2" cx="85" cy="166"></circle><circle r="10" cx="158" cy="281"></circle><circle r="2" cx="690" cy="485"></circle><circle r="10" cx="726" cy="142"></circle><circle r="11" cx="510" cy="53"></circle><circle r="9" cx="564" cy="267"></circle><circle r="3" cx="203" cy="212"></circle><circle r="7" cx="439" cy="182"></circle><circle r="4" cx="379" cy="299"></circle><circle r="9" cx="214" cy="310"></circle><circle r="11" cx="44" cy="309"></circle><circle r="8" cx="887" cy="490"></circle><circle r="9" cx="368" cy="216"></circle><circle r="2" cx="849" cy="369"></circle><circle r="2" cx="480" cy="270"></circle><circle r="12" cx="31" cy="455"></circle><circle r="11" cx="170" cy="135"></circle><circle r="10" cx="251" cy="488"></circle><circle r="6" cx="263" cy="442"></circle><circle r="8" cx="234" cy="2"></circle><circle r="10" cx="872" cy="236"></circle><circle r="3" cx="470" cy="210"></circle><circle r="8" cx="653" cy="350"></circle><circle r="0" cx="462" cy="343"></circle><circle r="5" cx="511" cy="207"></circle><circle r="0" cx="864" cy="164"></circle><circle r="0" cx="637" cy="572"></circle><circle r="12" cx="599" cy="124"></circle><circle r="1" cx="533" cy="443"></circle><circle r="6" cx="619" cy="457"></circle><circle r="7" cx="576" cy="71"></circle><circle r="11" cx="83" cy="316"></circle><circle r="6" cx="770" cy="242"></circle><circle r="6" cx="365" cy="379"></circle><circle r="8" cx="397" cy="449"></circle><circle r="1" cx="754" cy="454"></circle><circle r="7" cx="236" cy="404"></circle><circle r="10" cx="857" cy="313"></circle><circle r="9" cx="717" cy="209"></circle><circle r="5" cx="246" cy="243"></circle><circle r="1" cx="526" cy="470"></circle><circle r="3" cx="15" cy="430"></circle><circle r="6" cx="220" cy="500"></circle><circle r="11" cx="146" cy="5"></circle><circle r="10" cx="593" cy="266"></circle><circle r="11" cx="470" cy="465"></circle><circle r="3" cx="188" cy="71"></circle><circle r="0" cx="324" cy="494"></circle><circle r="2" cx="436" cy="56"></circle><circle r="5" cx="776" cy="595"></circle><circle r="7" cx="485" cy="595"></circle><circle r="11" cx="597" cy="432"></circle><circle r="1" cx="317" cy="419"></circle><circle r="0" cx="526" cy="321"></circle><circle r="9" cx="111" cy="183"></circle><circle r="5" cx="874" cy="407"></circle><circle r="10" cx="687" cy="127"></circle><circle r="11" cx="557" cy="176"></circle><circle r="0" cx="774" cy="101"></circle><circle r="2" cx="444" cy="261"></circle><circle r="4" cx="167" cy="97"></circle><circle r="3" cx="330" cy="251"></circle><circle r="5" cx="393" cy="344"></circle><circle r="10" cx="229" cy="276"></circle><circle r="9" cx="198" cy="552"></circle><circle r="2" cx="605" cy="19"></circle><circle r="11" cx="342" cy="115"></circle><circle r="1" cx="305" cy="227"></circle><circle r="10" cx="125" cy="113"></circle><circle r="1" cx="724" cy="104"></circle><circle r="3" cx="714" cy="356"></circle><circle r="3" cx="817" cy="442"></circle><circle r="2" cx="779" cy="495"></circle><circle r="7" cx="856" cy="576"></circle><circle r="8" cx="200" cy="286"></circle><circle r="11" cx="701" cy="44"></circle><circle r="12" cx="391" cy="531"></circle><circle r="5" cx="799" cy="55"></circle><circle r="0" cx="211" cy="173"></circle><circle r="8" cx="682" cy="298"></circle><circle r="9" cx="345" cy="35"></circle><circle r="12" cx="120" cy="581"></circle><circle r="2" cx="617" cy="154"></circle><circle r="5" cx="230" cy="83"></circle><circle r="6" cx="689" cy="382"></circle><circle r="0" cx="56" cy="583"></circle><circle r="8" cx="485" cy="533"></circle><circle r="5" cx="471" cy="47"></circle><circle r="9" cx="105" cy="246"></circle><circle r="1" cx="899" cy="171"></circle><circle r="2" cx="165" cy="323"></circle><circle r="2" cx="487" cy="13"></circle><circle r="5" cx="4" cy="357"></circle><circle r="5" cx="624" cy="50"></circle><circle r="1" cx="895" cy="426"></circle><circle r="1" cx="335" cy="580"></circle><circle r="0" cx="136" cy="350"></circle><circle r="8" cx="81" cy="348"></circle><circle r="7" cx="41" cy="92"></circle><circle r="7" cx="431" cy="232"></circle><circle r="6" cx="359" cy="444"></circle><circle r="0" cx="3" cy="177"></circle><circle r="11" cx="212" cy="468"></circle><circle r="7" cx="169" cy="37"></circle><circle r="0" cx="705" cy="284"></circle><circle r="7" cx="429" cy="495"></circle><circle r="10" cx="457" cy="532"></circle><circle r="12" cx="152" cy="191"></circle><circle r="0" cx="264" cy="392"></circle><circle r="4" cx="302" cy="39"></circle><circle r="7" cx="3" cy="43"></circle><circle r="4" cx="193" cy="503"></circle><circle r="0" cx="792" cy="218"></circle><circle r="0" cx="868" cy="272"></circle><circle r="12" cx="164" cy="529"></circle><circle r="12" cx="498" cy="563"></circle><circle r="7" cx="656" cy="452"></circle><circle r="12" cx="75" cy="48"></circle><circle r="5" cx="809" cy="535"></circle><circle r="5" cx="131" cy="143"></circle><circle r="7" cx="576" cy="16"></circle><circle r="1" cx="54" cy="268"></circle><circle r="2" cx="895" cy="596"></circle><circle r="3" cx="795" cy="172"></circle><circle r="8" cx="426" cy="544"></circle><circle r="12" cx="573" cy="350"></circle><circle r="9" cx="137" cy="544"></circle><circle r="1" cx="84" cy="497"></circle><circle r="4" cx="332" cy="281"></circle><circle r="9" cx="294" cy="287"></circle><circle r="7" cx="540" cy="556"></circle><circle r="3" cx="504" cy="79"></circle><circle r="4" cx="599" cy="221"></circle><circle r="5" cx="858" cy="481"></circle><circle r="8" cx="447" cy="583"></circle><circle r="10" cx="92" cy="594"></circle><circle r="9" cx="264" cy="275"></circle><circle r="11" cx="452" cy="79"></circle><circle r="4" cx="205" cy="398"></circle><circle r="6" cx="32" cy="211"></circle><circle r="11" cx="664" cy="391"></circle><circle r="2" cx="505" cy="396"></circle><circle r="1" cx="763" cy="138"></circle><circle r="11" cx="295" cy="513"></circle><circle r="12" cx="549" cy="382"></circle><circle r="4" cx="866" cy="59"></circle><circle r="2" cx="703" cy="596"></circle><circle r="9" cx="546" cy="511"></circle><circle r="9" cx="805" cy="306"></circle><circle r="1" cx="339" cy="360"></circle><circle r="4" cx="839" cy="421"></circle><circle r="5" cx="415" cy="472"></circle><circle r="1" cx="141" cy="219"></circle><circle r="9" cx="606" cy="495"></circle><circle r="6" cx="770" cy="528"></circle><circle r="11" cx="110" cy="434"></circle><circle r="12" cx="238" cy="573"></circle><circle r="0" cx="762" cy="321"></circle><circle r="10" cx="887" cy="94"></circle><circle r="0" cx="335" cy="224"></circle><circle r="4" cx="231" cy="534"></circle><circle r="4" cx="625" cy="425"></circle><circle r="2" cx="313" cy="116"></circle><circle r="1" cx="895" cy="557"></circle><circle r="1" cx="786" cy="16"></circle><circle r="2" cx="738" cy="263"></circle><circle r="7" cx="678" cy="589"></circle><circle r="3" cx="256" cy="117"></circle><circle r="12" cx="310" cy="539"></circle><circle r="5" cx="475" cy="399"></circle><circle r="12" cx="719" cy="475"></circle><circle r="1" cx="307" cy="66"></circle><circle r="5" cx="399" cy="498"></circle><circle r="2" cx="697" cy="562"></circle><circle r="1" cx="108" cy="372"></circle><circle r="5" cx="55" cy="478"></circle><circle r="1" cx="420" cy="349"></circle><circle r="5" cx="841" cy="109"></circle><circle r="8" cx="408" cy="307"></circle><circle r="1" cx="528" cy="412"></circle><circle r="8" cx="399" cy="57"></circle><circle r="4" cx="163" cy="481"></circle><circle r="11" cx="599" cy="590"></circle><circle r="5" cx="73" cy="442"></circle><circle r="9" cx="617" cy="547"></circle><circle r="5" cx="259" cy="548"></circle><circle r="2" cx="390" cy="151"></circle><circle r="11" cx="397" cy="125"></circle><circle r="5" cx="838" cy="514"></circle><circle r="7" cx="553" cy="46"></circle><circle r="7" cx="194" cy="345"></circle><circle r="11" cx="511" cy="350"></circle><circle r="3" cx="205" cy="146"></circle><circle r="7" cx="560" cy="439"></circle><circle r="0" cx="606" cy="331"></circle><circle r="2" cx="501" cy="106"></circle><circle r="10" cx="271" cy="69"></circle><circle r="8" cx="729" cy="316"></circle><circle r="6" cx="148" cy="448"></circle><circle r="8" cx="40" cy="65"></circle><circle r="4" cx="814" cy="113"></circle><circle r="9" cx="173" cy="222"></circle><circle r="8" cx="896" cy="307"></circle><circle r="0" cx="892" cy="521"></circle><circle r="0" cx="409" cy="98"></circle><circle r="8" cx="11" cy="4"></circle><circle r="7" cx="747" cy="493"></circle><circle r="3" cx="502" cy="233"></circle><circle r="7" cx="84" cy="4"></circle><circle r="8" cx="360" cy="190"></circle><circle r="6" cx="411" cy="596"></circle><circle r="4" cx="291" cy="191"></circle><circle r="6" cx="687" cy="19"></circle><circle r="11" cx="309" cy="148"></circle><circle r="7" cx="237" cy="331"></circle><circle r="9" cx="92" cy="528"></circle><circle r="10" cx="373" cy="2"></circle><circle r="6" cx="270" cy="578"></circle><circle r="7" cx="282" cy="312"></circle><circle r="8" cx="80" cy="556"></circle><circle r="11" cx="131" cy="318"></circle><circle r="0" cx="469" cy="559"></circle><circle r="12" cx="17" cy="112"></circle><circle r="12" cx="337" cy="62"></circle><circle r="1" cx="772" cy="75"></circle><circle r="11" cx="872" cy="453"></circle><circle r="12" cx="651" cy="79"></circle><circle r="1" cx="372" cy="47"></circle><circle r="11" cx="100" cy="36"></circle><circle r="12" cx="43" cy="424"></circle><circle r="12" cx="534" cy="192"></circle><circle r="7" cx="638" cy="224"></circle><circle r="12" cx="443" cy="412"></circle><circle r="7" cx="410" cy="565"></circle><circle r="12" cx="118" cy="14"></circle><circle r="12" cx="28" cy="486"></circle><circle r="7" cx="42" cy="554"></circle><circle r="5" cx="792" cy="423"></circle><circle r="6" cx="506" cy="142"></circle><circle r="1" cx="280" cy="99"></circle><circle r="1" cx="3" cy="137"></circle><circle r="11" cx="205" cy="24"></circle><circle r="7" cx="206" cy="596"></circle><circle r="5" cx="296" cy="437"></circle><circle r="6" cx="78" cy="241"></circle><circle r="0" cx="338" cy="464"></circle><circle r="4" cx="742" cy="567"></circle><circle r="3" cx="379" cy="407"></circle><circle r="12" cx="897" cy="199"></circle><circle r="9" cx="844" cy="454"></circle><circle r="5" cx="591" cy="41"></circle><circle r="2" cx="684" cy="160"></circle><circle r="0" cx="685" cy="335"></circle><circle r="10" cx="115" cy="65"></circle><circle r="8" cx="562" cy="94"></circle><circle r="4" cx="857" cy="11"></circle><circle r="10" cx="632" cy="323"></circle><circle r="6" cx="397" cy="214"></circle><circle r="4" cx="571" cy="236"></circle><circle r="3" cx="413" cy="273"></circle><circle r="0" cx="278" cy="493"></circle><circle r="8" cx="4" cy="404"></circle><circle r="3" cx="75" cy="285"></circle><circle r="6" cx="451" cy="441"></circle><circle r="8" cx="847" cy="396"></circle><circle r="4" cx="462" cy="4"></circle><circle r="10" cx="613" cy="397"></circle><circle r="8" cx="259" cy="362"></circle><circle r="9" cx="369" cy="117"></circle><circle r="10" cx="622" cy="191"></circle><circle r="5" cx="438" cy="109"></circle><circle r="2" cx="826" cy="481"></circle><circle r="5" cx="526" cy="165"></circle><circle r="12" cx="94" cy="103"></circle><circle r="6" cx="779" cy="346"></circle><circle r="9" cx="419" cy="386"></circle><circle r="10" cx="76" cy="376"></circle><circle r="11" cx="307" cy="599"></circle><circle r="12" cx="510" cy="270"></circle><circle r="10" cx="179" cy="160"></circle><circle r="4" cx="464" cy="240"></circle><circle r="3" cx="815" cy="197"></circle><circle r="5" cx="817" cy="230"></circle><circle r="5" cx="361" cy="343"></circle><circle r="6" cx="148" cy="78"></circle><circle r="5" cx="823" cy="559"></circle><circle r="6" cx="662" cy="488"></circle><circle r="0" cx="899" cy="354"></circle><circle r="8" cx="882" cy="1"></circle><circle r="12" cx="8" cy="557"></circle><circle r="5" cx="300" cy="9"></circle><circle r="8" cx="821" cy="373"></circle><circle r="7" cx="64" cy="143"></circle><circle r="8" cx="897" cy="460"></circle><circle r="2" cx="1" cy="475"></circle><circle r="3" cx="739" cy="195"></circle><circle r="11" cx="497" cy="465"></circle><circle r="2" cx="4" cy="504"></circle><circle r="12" cx="565" cy="535"></circle><circle r="2" cx="899" cy="68"></circle><circle r="1" cx="786" cy="125"></circle><circle r="3" cx="833" cy="294"></circle><circle r="8" cx="5" cy="204"></circle><circle r="11" cx="280" cy="237"></circle><circle r="6" cx="145" cy="505"></circle><circle r="11" cx="849" cy="36"></circle><circle r="11" cx="385" cy="181"></circle><circle r="3" cx="791" cy="281"></circle><circle r="0" cx="167" cy="391"></circle><circle r="4" cx="774" cy="191"></circle><circle r="0" cx="674" cy="227"></circle><circle r="10" cx="23" cy="337"></circle><circle r="1" cx="415" cy="194"></circle><circle r="8" cx="316" cy="306"></circle><circle r="10" cx="231" cy="37"></circle><circle r="12" cx="470" cy="181"></circle><circle r="8" cx="654" cy="33"></circle><circle r="9" cx="129" cy="280"></circle><circle r="4" cx="626" cy="128"></circle><circle r="10" cx="858" cy="87"></circle><circle r="8" cx="834" cy="596"></circle><circle r="4" cx="443" cy="30"></circle><circle r="12" cx="550" cy="308"></circle><circle r="9" cx="705" cy="72"></circle><circle r="9" cx="826" cy="168"></circle><circle r="12" cx="200" cy="371"></circle><circle r="12" cx="313" cy="365"></circle><circle r="2" cx="6" cy="234"></circle><circle r="8" cx="245" cy="462"></circle><circle r="9" cx="690" cy="414"></circle><circle r="0" cx="388" cy="267"></circle><circle r="11" cx="744" cy="522"></circle><circle r="4" cx="732" cy="288"></circle><circle r="9" cx="317" cy="203"></circle><circle r="5" cx="228" cy="110"></circle><circle r="5" cx="327" cy="388"></circle><circle r="6" cx="625" cy="597"></circle><circle r="5" cx="645" cy="301"></circle><circle r="5" cx="711" cy="257"></circle><circle r="7" cx="56" cy="334"></circle><circle r="2" cx="277" cy="419"></circle><circle r="5" cx="466" cy="292"></circle><circle r="2" cx="273" cy="467"></circle><circle r="7" cx="487" cy="337"></circle></g></svg>