<svg id="visual" viewBox="0 0 900 600" width="900" height="600" xmlns="http://www.w3.org/2000/svg" xmlns:xlink="http://www.w3.org/1999/xlink" version="1.1"><path d="M0 25L50 26C100 27 200 29 300 29C400 29 500 27 600 27C700 27 800 29 850 30L900 31L900 0L850 0C800 0 700 0 600 0C500 0 400 0 300 0C200 0 100 0 50 0L0 0Z" fill="#8d417a"></path><path d="M0 61L50 61C100 61 200 61 300 62C400 63 500 65 600 66C700 67 800 67 850 67L900 67L900 29L850 28C800 27 700 25 600 25C500 25 400 27 300 27C200 27 100 25 50 24L0 23Z" fill="#863b73"></path><path d="M0 175L50 174C100 173 200 171 300 170C400 169 500 169 600 171C700 173 800 177 850 179L900 181L900 65L850 65C800 65 700 65 600 64C500 63 400 61 300 60C200 59 100 59 50 59L0 59Z" fill="#7f346c"></path><path d="M0 199L50 198C100 197 200 195 300 194C400 193 500 193 600 195C700 197 800 201 850 203L900 205L900 179L850 177C800 175 700 171 600 169C500 167 400 167 300 168C200 169 100 171 50 172L0 173Z" fill="#782e66"></path><path d="M0 277L50 273C100 269 200 261 300 261C400 261 500 269 600 271C700 273 800 269 850 267L900 265L900 203L850 201C800 199 700 195 600 193C500 191 400 191 300 192C200 193 100 195 50 196L0 197Z" fill="#70275f"></path><path d="M0 325L50 319C100 313 200 301 300 298C400 295 500 301 600 302C700 303 800 299 850 297L900 295L900 263L850 265C800 267 700 271 600 269C500 267 400 259 300 259C200 259 100 267 50 271L0 275Z" fill="#692058"></path><path d="M0 379L50 371C100 363 200 347 300 345C400 343 500 355 600 359C700 363 800 359 850 357L900 355L900 293L850 295C800 297 700 301 600 300C500 299 400 293 300 296C200 299 100 311 50 317L0 323Z" fill="#631d53"></path><path d="M0 421L50 415C100 409 200 397 300 394C400 391 500 397 600 398C700 399 800 395 850 393L900 391L900 353L850 355C800 357 700 361 600 357C500 353 400 341 300 343C200 345 100 361 50 369L0 377Z" fill="#5f1c4f"></path><path d="M0 439L50 433C100 427 200 415 300 413C400 411 500 419 600 421C700 423 800 419 850 417L900 415L900 389L850 391C800 393 700 397 600 396C500 395 400 389 300 392C200 395 100 407 50 413L0 419Z" fill="#5a1b4a"></path><path d="M0 463L50 459C100 455 200 447 300 445C400 443 500 447 600 448C700 449 800 447 850 446L900 445L900 413L850 415C800 417 700 421 600 419C500 417 400 409 300 411C200 413 100 425 50 431L0 437Z" fill="#551a46"></path><path d="M0 487L50 483C100 479 200 471 300 468C400 465 500 467 600 468C700 469 800 469 850 469L900 469L900 443L850 444C800 445 700 447 600 446C500 445 400 441 300 443C200 445 100 453 50 457L0 461Z" fill="#501942"></path><path d="M0 601L50 601C100 601 200 601 300 601C400 601 500 601 600 601C700 601 800 601 850 601L900 601L900 467L850 467C800 467 700 467 600 466C500 465 400 463 300 466C200 469 100 477 50 481L0 485Z" fill="#4b183e"></path></svg>