<svg id="visual" viewBox="0 0 900 600" width="900" height="600" xmlns="http://www.w3.org/2000/svg" xmlns:xlink="http://www.w3.org/1999/xlink" version="1.1"><rect x="0" y="0" width="900" height="600" fill="#A84474"></rect><path d="M0 352L129 356L257 373L386 385L514 422L643 402L771 362L900 402L900 601L771 601L643 601L514 601L386 601L257 601L129 601L0 601Z" fill="#8d417a"></path><path d="M0 451L129 460L257 439L386 475L514 466L643 397L771 460L900 417L900 601L771 601L643 601L514 601L386 601L257 601L129 601L0 601Z" fill="#792f67"></path><path d="M0 453L129 494L257 507L386 502L514 447L643 467L771 493L900 455L900 601L771 601L643 601L514 601L386 601L257 601L129 601L0 601Z" fill="#661d55"></path><path d="M0 541L129 494L257 527L386 521L514 503L643 540L771 495L900 496L900 601L771 601L643 601L514 601L386 601L257 601L129 601L0 601Z" fill="#581b49"></path><path d="M0 527L129 547L257 550L386 555L514 526L643 562L771 568L900 558L900 601L771 601L643 601L514 601L386 601L257 601L129 601L0 601Z" fill="#4b183e"></path></svg>