<svg id="visual" viewBox="0 0 900 600" width="900" height="600" xmlns="http://www.w3.org/2000/svg" xmlns:xlink="http://www.w3.org/1999/xlink" version="1.1"><path d="M0 169L82 133L164 169L245 67L327 109L409 121L491 79L573 103L655 121L736 85L818 163L900 67L900 0L818 0L736 0L655 0L573 0L491 0L409 0L327 0L245 0L164 0L82 0L0 0Z" fill="#a84474"></path><path d="M0 211L82 241L164 229L245 127L327 157L409 205L491 169L573 157L655 223L736 151L818 211L900 121L900 65L818 161L736 83L655 119L573 101L491 77L409 119L327 107L245 65L164 167L82 131L0 167Z" fill="#973a6d"></path><path d="M0 421L82 421L164 403L245 259L327 319L409 409L491 349L573 343L655 409L736 343L818 355L900 241L900 119L818 209L736 149L655 221L573 155L491 167L409 203L327 155L245 125L164 227L82 239L0 209Z" fill="#873065"></path><path d="M0 463L82 457L164 469L245 313L327 361L409 469L491 415L573 421L655 487L736 439L818 403L900 301L900 239L818 353L736 341L655 407L573 341L491 347L409 407L327 317L245 257L164 401L82 419L0 419Z" fill="#76265d"></path><path d="M0 601L82 601L164 601L245 601L327 601L409 601L491 601L573 601L655 601L736 601L818 601L900 601L900 299L818 401L736 437L655 485L573 419L491 413L409 467L327 359L245 311L164 467L82 455L0 461Z" fill="#661d55"></path></svg>