<svg id="visual" viewBox="0 0 900 600" width="900" height="600" xmlns="http://www.w3.org/2000/svg" xmlns:xlink="http://www.w3.org/1999/xlink" version="1.1"><g stroke-width="1" stroke-linejoin="bevel"><path d="M412 327L311 296L377 366Z" fill="#7d336b" stroke="#7d336b"></path><path d="M311 296L280 368L377 366Z" fill="#611c50" stroke="#611c50"></path><path d="M377 185L292 231L311 296Z" fill="#4b183e" stroke="#4b183e"></path><path d="M311 296L197 308L280 368Z" fill="#6e245c" stroke="#6e245c"></path><path d="M412 327L377 185L311 296Z" fill="#561a47" stroke="#561a47"></path><path d="M292 231L197 308L311 296Z" fill="#611c50" stroke="#611c50"></path><path d="M206 464L320 479L280 368Z" fill="#4b183e" stroke="#4b183e"></path><path d="M280 368L320 479L377 366Z" fill="#5b1b4c" stroke="#5b1b4c"></path><path d="M527 408L528 292L412 327Z" fill="#7d336b" stroke="#7d336b"></path><path d="M527 408L412 327L377 366Z" fill="#6e245c" stroke="#6e245c"></path><path d="M412 327L481 186L377 185Z" fill="#501942" stroke="#501942"></path><path d="M528 292L481 186L412 327Z" fill="#6e245c" stroke="#6e245c"></path><path d="M320 479L418 493L377 366Z" fill="#611c50" stroke="#611c50"></path><path d="M418 493L527 408L377 366Z" fill="#4b183e" stroke="#4b183e"></path><path d="M377 185L332 123L292 231Z" fill="#6e245c" stroke="#6e245c"></path><path d="M292 231L163 199L197 308Z" fill="#501942" stroke="#501942"></path><path d="M417 120L332 123L377 185Z" fill="#661d55" stroke="#661d55"></path><path d="M197 308L194 425L280 368Z" fill="#853a72" stroke="#853a72"></path><path d="M481 186L417 120L377 185Z" fill="#7d336b" stroke="#7d336b"></path><path d="M194 425L206 464L280 368Z" fill="#611c50" stroke="#611c50"></path><path d="M461 600L491 506L418 493Z" fill="#611c50" stroke="#611c50"></path><path d="M233 105L163 199L292 231Z" fill="#6e245c" stroke="#6e245c"></path><path d="M197 308L69 376L194 425Z" fill="#7d336b" stroke="#7d336b"></path><path d="M418 493L491 506L527 408Z" fill="#611c50" stroke="#611c50"></path><path d="M377 600L418 493L320 479Z" fill="#7d336b" stroke="#7d336b"></path><path d="M588 179L499 130L481 186Z" fill="#7d336b" stroke="#7d336b"></path><path d="M481 186L499 130L417 120Z" fill="#6e245c" stroke="#6e245c"></path><path d="M527 408L593 332L528 292Z" fill="#4b183e" stroke="#4b183e"></path><path d="M528 292L588 179L481 186Z" fill="#752c64" stroke="#752c64"></path><path d="M592 413L593 332L527 408Z" fill="#611c50" stroke="#611c50"></path><path d="M283 0L233 105L332 123Z" fill="#752c64" stroke="#752c64"></path><path d="M332 123L233 105L292 231Z" fill="#6e245c" stroke="#6e245c"></path><path d="M575 533L592 413L527 408Z" fill="#752c64" stroke="#752c64"></path><path d="M593 332L588 179L528 292Z" fill="#853a72" stroke="#853a72"></path><path d="M233 105L117 187L163 199Z" fill="#561a47" stroke="#561a47"></path><path d="M163 199L86 261L197 308Z" fill="#5b1b4c" stroke="#5b1b4c"></path><path d="M194 425L88 524L206 464Z" fill="#8d417a" stroke="#8d417a"></path><path d="M117 187L86 261L163 199Z" fill="#661d55" stroke="#661d55"></path><path d="M313 600L377 600L320 479Z" fill="#561a47" stroke="#561a47"></path><path d="M206 464L313 600L320 479Z" fill="#611c50" stroke="#611c50"></path><path d="M86 261L69 376L197 308Z" fill="#611c50" stroke="#611c50"></path><path d="M206 464L168 600L313 600Z" fill="#7d336b" stroke="#7d336b"></path><path d="M377 600L461 600L418 493Z" fill="#561a47" stroke="#561a47"></path><path d="M491 506L575 533L527 408Z" fill="#6e245c" stroke="#6e245c"></path><path d="M461 600L575 533L491 506Z" fill="#8d417a" stroke="#8d417a"></path><path d="M526 0L395 0L417 120Z" fill="#501942" stroke="#501942"></path><path d="M417 120L395 0L332 123Z" fill="#661d55" stroke="#661d55"></path><path d="M526 0L417 120L499 130Z" fill="#6e245c" stroke="#6e245c"></path><path d="M588 179L564 65L499 130Z" fill="#5b1b4c" stroke="#5b1b4c"></path><path d="M395 0L283 0L332 123Z" fill="#6e245c" stroke="#6e245c"></path><path d="M233 105L60 82L117 187Z" fill="#4b183e" stroke="#4b183e"></path><path d="M697 401L693 286L593 332Z" fill="#561a47" stroke="#561a47"></path><path d="M593 332L693 286L588 179Z" fill="#611c50" stroke="#611c50"></path><path d="M588 179L685 91L564 65Z" fill="#6e245c" stroke="#6e245c"></path><path d="M697 401L593 332L592 413Z" fill="#6e245c" stroke="#6e245c"></path><path d="M69 376L88 524L194 425Z" fill="#5b1b4c" stroke="#5b1b4c"></path><path d="M88 524L168 600L206 464Z" fill="#752c64" stroke="#752c64"></path><path d="M283 0L216 0L233 105Z" fill="#7d336b" stroke="#7d336b"></path><path d="M725 497L697 401L592 413Z" fill="#5b1b4c" stroke="#5b1b4c"></path><path d="M564 65L526 0L499 130Z" fill="#752c64" stroke="#752c64"></path><path d="M461 600L577 600L575 533Z" fill="#501942" stroke="#501942"></path><path d="M575 533L725 497L592 413Z" fill="#7d336b" stroke="#7d336b"></path><path d="M0 200L0 304L86 261Z" fill="#8d417a" stroke="#8d417a"></path><path d="M86 261L0 304L69 376Z" fill="#561a47" stroke="#561a47"></path><path d="M69 376L0 396L88 524Z" fill="#752c64" stroke="#752c64"></path><path d="M0 200L86 261L117 187Z" fill="#853a72" stroke="#853a72"></path><path d="M0 304L0 396L69 376Z" fill="#561a47" stroke="#561a47"></path><path d="M88 524L115 600L168 600Z" fill="#5b1b4c" stroke="#5b1b4c"></path><path d="M0 600L115 600L88 524Z" fill="#853a72" stroke="#853a72"></path><path d="M0 124L0 200L117 187Z" fill="#7d336b" stroke="#7d336b"></path><path d="M90 0L60 82L233 105Z" fill="#8d417a" stroke="#8d417a"></path><path d="M693 286L716 166L588 179Z" fill="#501942" stroke="#501942"></path><path d="M564 65L624 0L526 0Z" fill="#661d55" stroke="#661d55"></path><path d="M805 229L716 166L693 286Z" fill="#7d336b" stroke="#7d336b"></path><path d="M716 166L685 91L588 179Z" fill="#611c50" stroke="#611c50"></path><path d="M709 600L725 497L575 533Z" fill="#752c64" stroke="#752c64"></path><path d="M697 401L810 322L693 286Z" fill="#501942" stroke="#501942"></path><path d="M60 82L0 124L117 187Z" fill="#7d336b" stroke="#7d336b"></path><path d="M0 396L0 513L88 524Z" fill="#8d417a" stroke="#8d417a"></path><path d="M685 91L624 0L564 65Z" fill="#4b183e" stroke="#4b183e"></path><path d="M216 0L90 0L233 105Z" fill="#4b183e" stroke="#4b183e"></path><path d="M60 82L0 0L0 124Z" fill="#501942" stroke="#501942"></path><path d="M725 497L762 428L697 401Z" fill="#853a72" stroke="#853a72"></path><path d="M784 0L669 0L685 91Z" fill="#5b1b4c" stroke="#5b1b4c"></path><path d="M685 91L669 0L624 0Z" fill="#4b183e" stroke="#4b183e"></path><path d="M762 428L810 322L697 401Z" fill="#561a47" stroke="#561a47"></path><path d="M716 166L813 63L685 91Z" fill="#752c64" stroke="#752c64"></path><path d="M577 600L709 600L575 533Z" fill="#853a72" stroke="#853a72"></path><path d="M725 497L792 475L762 428Z" fill="#853a72" stroke="#853a72"></path><path d="M762 428L900 362L810 322Z" fill="#8d417a" stroke="#8d417a"></path><path d="M810 322L805 229L693 286Z" fill="#6e245c" stroke="#6e245c"></path><path d="M0 513L0 600L88 524Z" fill="#611c50" stroke="#611c50"></path><path d="M820 600L792 475L725 497Z" fill="#5b1b4c" stroke="#5b1b4c"></path><path d="M90 0L0 0L60 82Z" fill="#561a47" stroke="#561a47"></path><path d="M900 138L813 63L805 229Z" fill="#5b1b4c" stroke="#5b1b4c"></path><path d="M805 229L813 63L716 166Z" fill="#8d417a" stroke="#8d417a"></path><path d="M813 63L784 0L685 91Z" fill="#611c50" stroke="#611c50"></path><path d="M900 362L900 320L810 322Z" fill="#8d417a" stroke="#8d417a"></path><path d="M810 322L900 320L805 229Z" fill="#611c50" stroke="#611c50"></path><path d="M900 362L762 428L792 475Z" fill="#752c64" stroke="#752c64"></path><path d="M709 600L820 600L725 497Z" fill="#8d417a" stroke="#8d417a"></path><path d="M900 504L900 362L792 475Z" fill="#7d336b" stroke="#7d336b"></path><path d="M900 320L900 203L805 229Z" fill="#661d55" stroke="#661d55"></path><path d="M813 63L900 0L784 0Z" fill="#6e245c" stroke="#6e245c"></path><path d="M900 203L900 138L805 229Z" fill="#853a72" stroke="#853a72"></path><path d="M820 600L900 504L792 475Z" fill="#8d417a" stroke="#8d417a"></path><path d="M820 600L900 600L900 504Z" fill="#4b183e" stroke="#4b183e"></path><path d="M900 138L900 0L813 63Z" fill="#5b1b4c" stroke="#5b1b4c"></path></g></svg>